<?xml version="1.0" encoding="utf-8"?>
<!-- Generator: Adobe Illustrator 21.1.0, SVG Export Plug-In . SVG Version: 6.00 Build 0)  -->
<svg version="1.1" id="Layer_1" xmlns="http://www.w3.org/2000/svg" xmlns:xlink="http://www.w3.org/1999/xlink" x="0px" y="0px"
	 viewBox="0 0 1000 1000" style="enable-background:new 0 0 1000 1000;" xml:space="preserve">
<style type="text/css">
	.st0{fill:#D1D3D4;stroke:#000000;stroke-miterlimit:10;}
	.st1{fill:none;stroke:#000000;stroke-miterlimit:10;}
</style>
<rect x="23.2" y="499.3" class="st0" width="807.8" height="399.4"/>
<line class="st1" x1="150.9" y1="842.2" x2="48.7" y2="653"/>
<line class="st1" x1="286.5" y1="540" x2="150.9" y2="842.2"/>
<line class="st1" x1="286.5" y1="540" x2="556.5" y2="838.3"/>
<line class="st1" x1="650.9" y1="547.9" x2="556.5" y2="838.3"/>
<line class="st1" x1="752.1" y1="846.1" x2="650.9" y2="547.9"/>
<rect x="147.5" y="48.6" class="st0" width="807.8" height="406.1"/>
<line class="st1" x1="275.3" y1="397.2" x2="173.1" y2="204.9"/>
<line class="st1" x1="311.6" y1="102.5" x2="275.3" y2="397.2"/>
<line class="st1" x1="536" y1="99.9" x2="680.9" y2="393.2"/>
<line class="st1" x1="775.3" y1="98" x2="680.9" y2="393.2"/>
<line class="st1" x1="876.4" y1="401.2" x2="775.3" y2="98"/>
<line class="st1" x1="380.4" y1="393.8" x2="311.6" y2="102.5"/>
<line class="st1" x1="420.4" y1="89.2" x2="380.4" y2="393.8"/>
<line class="st1" x1="456" y1="407.1" x2="420.4" y2="89.2"/>
<line class="st1" x1="500" y1="91.9" x2="456" y2="407.1"/>
<line class="st1" x1="504.9" y1="201.4" x2="527.1" y2="340.3"/>
<line class="st1" x1="500" y1="91.9" x2="504.9" y2="201.4"/>
<line class="st1" x1="527.1" y1="340.3" x2="536" y2="99.9"/>
</svg>
